<svg version="1.1" id="Laag_1" x="0px" y="0px" viewBox="0 0 100 100" xml:space="preserve">
<style type="text/css">
	.st2{fill:#63D6AD;}
</style>
<g>
	<path class="st2" d="M17.2,91.4c0,4.8-3.9,8.6-8.6,8.6S0,96.1,0,91.4s3.9-8.6,8.6-8.6C13.4,82.8,17.2,86.6,17.2,91.4z"/>
	<path class="st2" d="M40.6,97.5v2.5H28.1v-2.5c0-14.1-11.6-25.6-25.6-25.6H0V59.4h2.5C23.4,59.2,40.6,76.4,40.6,97.5z"/>
	<path class="st2" d="M61.7,97.5v2.5H49.2v-2.5c0-25.9-21.1-46.7-46.7-46.7H0V38.3h2.5C35.1,38.1,61.7,64.9,61.7,97.5z"/>
	<path class="st2" d="M64.6,30.2C50.6,17.5,32.9,8.8,13.2,6.3C18.6,2.3,25.2,0,32.4,0l0,0C49.4,0.2,63.5,13.4,64.6,30.2z"/>
	<path class="st2" d="M71.7,99.8v-2.3c0-38.3-31.1-69.4-69.4-69.4h-2c0.7-4.5,2-8.8,4.3-12.5C47.8,16.8,83,51.9,84.1,95.2
		C80.5,97.5,76.2,99.1,71.7,99.8z"/>
	<path class="st2" d="M99.8,67.6L99.8,67.6c0,7.3-2.3,13.8-6.3,19.3c-2.3-19.7-10.9-37.6-23.8-51.5C86.4,36.5,99.8,50.6,99.8,67.6z"
		/>
</g>
</svg>
