<?xml version="1.0" encoding="utf-8"?>
<!-- Generator: Adobe Illustrator 27.5.0, SVG Export Plug-In . SVG Version: 6.00 Build 0)  -->
<svg version="1.1" id="Laag_1" xmlns="http://www.w3.org/2000/svg" xmlns:xlink="http://www.w3.org/1999/xlink" x="0px" y="0px"
	 viewBox="0 0 32 32" style="enable-background:new 0 0 32 32;" xml:space="preserve">
<style type="text/css">
	.st0{fill:#63D6AD;}
</style>
<g>
	<path class="st0" d="M5.5,29.2c0,1.5-1.3,2.8-2.8,2.8S0,30.8,0,29.2c0-1.5,1.3-2.8,2.8-2.8C4.3,26.5,5.5,27.7,5.5,29.2z"/>
	<path class="st0" d="M13,31.2V32H9v-0.8C9,26.7,5.3,23,0.8,23H0v-4h0.8C7.5,18.9,13,24.4,13,31.2z"/>
	<path class="st0" d="M19.8,31.2V32h-4v-0.8c0-8.3-6.8-14.9-15-14.9H0v-4h0.8C11.3,12.2,19.8,20.8,19.8,31.2z"/>
	<path class="st0" d="M20.7,9.7C16.2,5.6,10.5,2.8,4.2,2C6,0.7,8.1,0,10.4,0l0,0C15.8,0.1,20.4,4.3,20.7,9.7z"/>
	<path class="st0" d="M23,31.9v-0.7C23,18.9,13,9,0.7,9H0.1c0.2-1.4,0.6-2.8,1.4-4C15.3,5.4,26.6,16.6,27,30.5
		C25.8,31.2,24.4,31.7,23,31.9z"/>
	<path class="st0" d="M32,21.6L32,21.6c0,2.3-0.7,4.4-2,6.2c-0.7-6.3-3.5-12-7.6-16.5C27.7,11.7,32,16.2,32,21.6z"/>
</g>
</svg>
